<svg width="44" height="40" viewBox="0 0 44 40" fill="none" xmlns="http://www.w3.org/2000/svg">
<g clip-path="url(#clip0_727_1217)">
<path d="M13.0076 17.5838C13.0338 17.463 13.0331 17.3377 13.0056 17.2171C12.9781 17.0965 12.9244 16.9837 12.8485 16.8869C12.7726 16.7901 12.6764 16.7117 12.5669 16.6575C12.4574 16.6032 12.3374 16.5745 12.2155 16.5734C12.0053 16.5623 11.7985 16.6313 11.6357 16.7669C11.473 16.9025 11.3659 17.095 11.3355 17.3066C10.9051 18.6598 10.8041 20.0988 11.0409 21.5003C11.2777 22.9018 11.8453 24.2241 12.6952 25.354C13.3452 26.251 14.1613 27.0104 15.0978 27.5894C15.2819 27.7175 15.5069 27.7699 15.7275 27.7359C15.948 27.7018 16.1477 27.584 16.2859 27.4061C16.4121 27.2191 16.4636 26.9905 16.4301 26.7664C16.3966 26.5423 16.2806 26.3395 16.1055 26.199C15.9427 26.0604 15.7579 25.9442 15.5863 25.8145C14.5434 25.0759 13.7222 24.0584 13.2134 22.8748C12.7047 21.6911 12.5284 20.3875 12.704 19.1084C12.7612 18.5987 12.9196 18.098 13.0076 17.5838Z" fill="white"/>
<path d="M16.8321 13.2963C17.0437 13.2846 17.2534 13.2486 17.457 13.189C18.0649 13.0329 18.6823 12.9179 19.3052 12.8448C20.2279 12.7848 21.1531 12.9142 22.0255 13.2252C22.898 13.5363 23.6998 14.0227 24.3833 14.6554C24.8893 15.1025 25.3954 15.1025 25.743 14.6867C26.0907 14.2709 25.9983 13.7926 25.4922 13.3455C23.8994 11.8971 21.8344 11.1006 19.6968 11.1101C19.5268 11.1013 19.3564 11.1013 19.1864 11.1101C18.3514 11.2059 17.5267 11.3779 16.7221 11.6242C16.5268 11.6682 16.3543 11.7836 16.2374 11.9485C16.1205 12.1134 16.0675 12.3163 16.0885 12.5184C16.1012 12.7167 16.183 12.9039 16.3193 13.0465C16.4556 13.189 16.6374 13.2776 16.8321 13.2963Z" fill="white"/>
<path d="M44.0041 26.9721V20.95C43.9231 20.716 43.7649 20.5178 43.5563 20.389C43.3477 20.2603 43.1017 20.2089 42.86 20.2436C40.9722 20.2436 39.08 20.2436 37.1922 20.2436H36.6818C36.6818 19.6624 36.6818 19.1259 36.6818 18.5894C36.6949 18.3581 36.6593 18.1267 36.5774 17.9106C36.4954 17.6944 36.3689 17.4985 36.2065 17.336C36.044 17.1735 35.8493 17.0481 35.6353 16.9682C35.4213 16.8883 35.193 16.8557 34.9656 16.8726C34.6356 16.8726 34.3099 16.8726 33.9755 16.8726C33.9315 16.7385 33.8919 16.6312 33.8655 16.5194C33.2919 13.9536 32.0291 11.5997 30.2175 9.71937C26.8424 6.23217 22.706 4.77023 17.9051 5.2486C17.5645 5.28094 17.2281 5.34987 16.9018 5.45426C16.7242 5.51613 16.5737 5.63979 16.4771 5.8034C16.3805 5.96701 16.3439 6.16004 16.3738 6.34841C16.3931 6.54855 16.4839 6.73457 16.629 6.87132C16.7741 7.00806 16.9635 7.08606 17.1614 7.09056C17.3595 7.09056 17.5619 7.05927 17.7599 7.05479C18.7987 6.96111 19.8425 6.9387 20.8842 6.98773C25.6455 7.48399 29.113 9.99209 31.2824 14.3243C31.6494 15.1562 31.974 16.0068 32.2549 16.8726H27.7489C26.5564 16.8726 25.9623 17.4672 25.9623 18.6609V20.2436H25.4343C23.5289 20.2436 21.6235 20.2436 19.7137 20.2436C18.948 20.2436 18.6356 20.5476 18.6312 21.321C18.6312 22.9931 18.6312 24.6652 18.6312 26.3417C18.6156 27.0889 18.8516 27.8192 19.3 28.4117C19.3948 28.5716 19.4379 28.7576 19.4233 28.9437C19.4233 30.1776 19.4233 31.416 19.4233 32.65V33.097C18.9216 33.0479 18.4816 33.0345 18.0415 32.9674C16.2981 32.7394 14.6191 32.1512 13.1079 31.2389C11.5967 30.3267 10.2854 29.1097 9.25472 27.663C8.22406 26.2162 7.49589 24.5704 7.11507 22.8269C6.73425 21.0834 6.70884 19.2792 7.04042 17.5253C7.08415 17.4041 7.10151 17.2746 7.09128 17.1458C7.08105 17.0171 7.04349 16.8921 6.98118 16.7795C6.91887 16.6669 6.83329 16.5694 6.73033 16.4936C6.62737 16.4179 6.50948 16.3656 6.38476 16.3406C6.26372 16.319 6.13958 16.3234 6.02032 16.3536C5.90107 16.3837 5.78934 16.4388 5.69234 16.5155C5.59534 16.5921 5.51522 16.6886 5.45713 16.7986C5.39903 16.9086 5.36426 17.0298 5.35505 17.1543C4.95187 19.2458 5.00142 21.4014 5.50027 23.4715C6.21681 26.5826 7.92272 29.367 10.354 31.3937C12.2913 33.0516 14.632 34.1495 17.1306 34.5724C17.8875 34.6976 18.6488 34.7691 19.4101 34.8675V38.2697C12.5806 37.8584 7.30885 34.8228 4.00852 28.7559C0.813798 22.9618 1.01182 17.0336 3.96011 11.1321C4.89741 12.0665 5.7907 12.9428 6.66638 13.8414C6.80992 14.0021 6.9863 14.129 7.18317 14.2132C7.38004 14.2974 7.59265 14.3368 7.8061 14.3287C9.36825 14.3287 10.926 14.3287 12.4882 14.3287C12.6209 14.3227 12.7534 14.3459 12.8764 14.3969C12.9995 14.4478 13.1102 14.5252 13.201 14.6238C14.7852 16.2512 16.3738 17.8607 17.9667 19.4746C18.0996 19.6129 18.2472 19.7359 18.4068 19.8412C18.5663 19.9389 18.7534 19.9796 18.9384 19.9569C19.1233 19.9342 19.2955 19.8495 19.4277 19.716C19.5627 19.5796 19.6467 19.3996 19.6652 19.207C19.6837 19.0144 19.6355 18.8213 19.5289 18.6609C19.428 18.498 19.3083 18.348 19.1724 18.2138C17.5751 16.5865 15.9689 14.9636 14.3804 13.3273C14.2238 13.1528 14.1319 12.9283 14.1207 12.6924C14.0987 11.1053 14.0943 9.51819 14.1207 7.93554C14.1313 7.70465 14.0914 7.47426 14.0039 7.2609C13.9164 7.04755 13.7835 6.85654 13.6147 6.7016C12.7346 5.80745 11.8809 4.91329 11.014 4.04149C11.0309 4.01591 11.05 3.99197 11.0712 3.96996L11.1768 3.90737C14.4292 2.13828 18.1386 1.42874 21.8016 1.87503C25.4645 2.32132 28.9036 3.90183 31.6521 6.40206C33.4196 8.00489 34.8582 9.94658 35.8853 12.1157C36.1977 12.764 36.6554 12.9652 37.1482 12.7103C37.6411 12.4555 37.7423 11.9548 37.4035 11.3289C36.8809 10.3119 36.3005 9.32662 35.6653 8.37814C32.1229 3.46029 27.3705 0.679473 21.4079 0.0938015C17.474 -0.297296 13.5179 0.56688 10.0899 2.56614C10.0363 2.60999 9.97423 2.64195 9.90771 2.65995C9.8412 2.67794 9.7717 2.68158 9.70372 2.67063C9.63573 2.65968 9.57075 2.63438 9.51297 2.59636C9.45519 2.55835 9.4059 2.50845 9.36825 2.4499C8.70379 1.74799 8.01292 1.06843 7.33525 0.379931C7.21885 0.218876 7.0527 0.102074 6.86333 0.0481626C6.67395 -0.00574852 6.47226 0.00633815 6.29044 0.0824943C6.10861 0.15865 5.95713 0.294487 5.86017 0.468328C5.76321 0.64217 5.72636 0.843997 5.75549 1.04161C5.75549 1.98941 5.75549 2.93274 5.75549 3.88055V5.83874H5.25384C3.8501 5.83874 2.45076 5.83874 1.04702 5.83874C0.855737 5.80887 0.660068 5.84229 0.488912 5.93407C0.317756 6.02584 0.180188 6.17111 0.096526 6.34841C0.0132095 6.53743 -0.00294203 6.74997 0.0508293 6.94974C0.104601 7.14951 0.22496 7.32411 0.391356 7.44375C1.06462 8.11884 1.71149 8.81181 2.39796 9.47795C2.45878 9.51713 2.51075 9.56895 2.55045 9.62999C2.59016 9.69103 2.6167 9.75992 2.62834 9.83213C2.63998 9.90433 2.63644 9.97822 2.61797 10.0489C2.5995 10.1197 2.56651 10.1856 2.52117 10.2425C1.23959 12.5356 0.431083 15.0698 0.144931 17.6908C-0.354585 21.4697 0.290054 25.3136 1.99312 28.7112C5.72029 36.0299 11.7225 39.8479 19.8545 39.9597C26.8556 40.0536 33.8611 39.9597 40.8622 39.9954C42.1207 39.9954 43.212 39.2578 43.1812 37.6215C43.1284 34.7736 43.1812 31.9257 43.1812 29.0778C43.4681 28.8144 43.6916 28.4875 43.8343 28.1224C43.9769 27.7573 44.0351 27.3637 44.0041 26.9721ZM7.48046 3.1071L7.58608 3.05345C9.14676 4.64505 10.7075 6.23962 12.2681 7.83718C12.3312 7.89426 12.3732 7.97158 12.387 8.05625C12.387 9.11135 12.387 10.162 12.387 11.302C12.2153 11.1411 12.1141 11.0517 12.0173 10.9533C10.6004 9.51372 9.19664 8.06966 7.77089 6.64348C7.66828 6.54757 7.58814 6.42951 7.53636 6.29798C7.48457 6.16645 7.46247 6.0248 7.47166 5.88345C7.48046 4.958 7.48046 4.03255 7.48046 3.1071ZM3.8501 7.57787C4.66418 7.57787 5.56627 7.38563 6.26594 7.67623C6.96561 7.96683 7.42326 8.76263 7.99532 9.33489L11.1108 12.4644L11.058 12.5896C10.0327 12.5896 9.00742 12.5896 7.97771 12.5896C7.86882 12.5722 7.76926 12.5169 7.69609 12.4331C6.1618 10.8535 4.62311 9.27975 3.08002 7.712C3.05382 7.66862 3.03312 7.62206 3.01842 7.5734L3.8501 7.57787ZM27.6829 18.6207H34.9304V20.2257H27.6829V18.6207ZM20.3342 26.221V22.4655C20.3342 22.3225 20.3342 22.1794 20.3342 22.0185H42.2747C42.2747 23.5519 42.2747 25.0497 42.2747 26.5474C42.2774 26.8739 42.1557 27.1888 41.9351 27.4263C41.7145 27.6638 41.412 27.8054 41.091 27.8215C38.7016 27.8484 36.3166 27.8215 33.8743 27.8215C33.8743 27.5667 33.8743 27.3432 33.8743 27.1152C33.8871 26.9647 33.8673 26.8132 33.8163 26.6714C33.7653 26.5296 33.6842 26.4008 33.5789 26.2943C33.4736 26.1877 33.3466 26.1059 33.2068 26.0546C33.067 26.0033 32.9178 25.9838 32.7698 25.9975C31.8237 25.9975 30.882 25.9975 29.9359 25.9975C29.7786 25.9753 29.6183 25.9895 29.4671 26.039C29.316 26.0884 29.1777 26.1719 29.0627 26.2832C28.9476 26.3945 28.8588 26.5307 28.8027 26.6817C28.7467 26.8327 28.7249 26.9946 28.739 27.1554C28.739 27.37 28.739 27.6025 28.739 27.8618H21.9359C20.8358 27.8439 20.3386 27.3387 20.3342 26.2165V26.221ZM32.1229 29.4489C32.0945 29.6456 31.9939 29.8241 31.8412 29.9485C31.6886 30.073 31.4952 30.134 31.3 30.1195C31.1048 30.1282 30.9138 30.0593 30.7676 29.9275C30.6214 29.7956 30.5314 29.6112 30.5168 29.4131C30.4728 28.8856 30.5168 28.3491 30.5168 27.7634H32.1229C32.1229 28.3312 32.1537 28.8945 32.1229 29.4489ZM35.7621 35.7706C36.0904 35.7884 36.4195 35.7884 36.7478 35.7706H41.4563C41.4563 36.5127 41.4563 37.2057 41.4563 37.8987C41.4563 38.0104 41.2582 38.1311 41.1306 38.2071C41.003 38.2831 40.937 38.2071 40.8358 38.2071H21.7863C21.1702 38.2071 21.1482 38.2071 21.1482 37.5812V29.5964H28.7478C28.7911 29.9739 28.9197 30.3362 29.1235 30.6549C29.3273 30.9736 29.6008 31.2402 29.9227 31.4339C30.3723 31.6793 30.8696 31.8213 31.3793 31.8497C32.5894 31.8855 33.3859 31.1388 33.8875 29.6143H41.4079V34.0404H36.1273C35.9984 34.0314 35.869 34.0314 35.7401 34.0404C35.531 34.0569 35.3352 34.1514 35.1906 34.3057C35.046 34.4601 34.9627 34.6634 34.9568 34.8764C34.9503 34.9881 34.9657 35.1001 35.0021 35.2057C35.0385 35.3113 35.0952 35.4086 35.1688 35.4917C35.2425 35.5749 35.3318 35.6424 35.4313 35.6903C35.5309 35.7381 35.6389 35.7654 35.7489 35.7706H35.7621Z" fill="white"/>
</g>
<defs>
<clipPath id="clip0_727_1217">
<rect width="44" height="40" fill="white"/>
</clipPath>
</defs>
</svg>
