<svg width="25" height="25" viewBox="0 0 25 25" fill="none" xmlns="http://www.w3.org/2000/svg">
<path d="M7.33333 0.875C3.77221 0.875 0.875 3.77221 0.875 7.33333V17.6667C0.875 21.2278 3.77221 24.125 7.33333 24.125H17.6667C21.2278 24.125 24.125 21.2278 24.125 17.6667V7.33333C24.125 3.77221 21.2278 0.875 17.6667 0.875H7.33333ZM7.33333 3.45833H17.6667C19.8031 3.45833 21.5417 5.19692 21.5417 7.33333V17.6667C21.5417 19.8031 19.8031 21.5417 17.6667 21.5417H7.33333C5.19692 21.5417 3.45833 19.8031 3.45833 17.6667V7.33333C3.45833 5.19692 5.19692 3.45833 7.33333 3.45833ZM18.9583 4.75C18.6158 4.75 18.2872 4.88609 18.045 5.12832C17.8028 5.37055 17.6667 5.6991 17.6667 6.04167C17.6667 6.38424 17.8028 6.71278 18.045 6.95501C18.2872 7.19725 18.6158 7.33333 18.9583 7.33333C19.3009 7.33333 19.6294 7.19725 19.8717 6.95501C20.1139 6.71278 20.25 6.38424 20.25 6.04167C20.25 5.6991 20.1139 5.37055 19.8717 5.12832C19.6294 4.88609 19.3009 4.75 18.9583 4.75ZM12.5 6.04167C8.93888 6.04167 6.04167 8.93888 6.04167 12.5C6.04167 16.0611 8.93888 18.9583 12.5 18.9583C16.0611 18.9583 18.9583 16.0611 18.9583 12.5C18.9583 8.93888 16.0611 6.04167 12.5 6.04167ZM12.5 8.625C14.6364 8.625 16.375 10.3636 16.375 12.5C16.375 14.6364 14.6364 16.375 12.5 16.375C10.3636 16.375 8.625 14.6364 8.625 12.5C8.625 10.3636 10.3636 8.625 12.5 8.625Z" fill="#0FB995"/>
</svg>
