<svg width="44" height="44" viewBox="0 0 44 44" fill="none" xmlns="http://www.w3.org/2000/svg">
<g clip-path="url(#clip0_727_1210)">
<path d="M4.43129 43.9999C4.23828 43.9987 4.05344 43.9218 3.91655 43.7857C3.77966 43.6496 3.70166 43.4652 3.69936 43.2721C3.69936 42.0989 3.69936 40.9213 3.69936 39.7437C3.69936 38.3543 3.69936 36.965 3.69936 35.5757C3.69936 35.2934 3.62881 35.1699 3.32898 35.1346C2.42754 35.0625 1.58628 34.6536 0.972661 33.9891C0.359045 33.3246 0.018075 32.4534 0.0176239 31.5488C0.0176239 28.0865 -0.0132409 24.6198 0.0176239 21.153C0.0230407 20.4973 0.213359 19.8563 0.566698 19.3039C0.920036 18.7515 1.42205 18.3101 2.01502 18.0304L2.27516 17.8804C1.65153 17.3873 1.13437 16.7728 0.754969 16.0741C0.375564 15.3753 0.141799 14.6069 0.0678146 13.8151C-0.0061699 13.0234 0.0811636 12.2249 0.324532 11.468C0.567901 10.711 0.962247 10.0113 1.48372 9.41111C2.00519 8.81096 2.64294 8.32285 3.3584 7.97632C4.07386 7.62979 4.85216 7.43203 5.64622 7.39502C6.44028 7.358 7.23359 7.48249 7.97818 7.76095C8.72276 8.03942 9.40313 8.46608 9.97814 9.01511C10.5704 9.59872 11.0325 10.301 11.3342 11.0759C11.6359 11.8508 11.7704 12.6808 11.7287 13.5113C11.6871 14.3419 11.4703 15.1542 11.0926 15.8951C10.7149 16.6359 10.1848 17.2884 9.53721 17.8098C10 18.155 10.4417 18.5276 10.86 18.9257C11.1697 19.2747 11.407 19.6816 11.5584 20.123C11.7098 20.5644 11.7721 21.0314 11.7418 21.4971C11.7418 22.3792 11.7418 23.2613 11.7418 24.2052H17.2755C18.1265 24.2052 18.3293 24.4125 18.3293 25.2769C18.3293 26.3619 18.3293 27.4514 18.3293 28.5981C18.9289 28.5981 19.4933 28.5981 20.0577 28.5981C20.1679 28.5981 20.2826 28.3996 20.3664 28.2761C21.6009 26.4325 22.8326 24.5874 24.0613 22.7409C24.132 22.6376 24.2403 22.566 24.3629 22.5413C24.4856 22.5166 24.6131 22.5407 24.7183 22.6085L25.1857 22.9217C25.278 22.9868 25.3418 23.0849 25.3639 23.1956C25.3861 23.3064 25.3649 23.4215 25.3047 23.5171L21.9228 28.5761H34.4363V23.4642C32.58 23.4642 30.7237 23.4642 28.8718 23.4642C28.6869 23.4712 28.5027 23.4378 28.3321 23.3662C28.1615 23.2945 28.0086 23.1865 27.8841 23.0496C25.825 20.9854 23.7615 18.9125 21.6891 16.8571C21.1336 16.3014 21.1336 15.975 21.6891 15.4061L24.2377 12.8523C24.758 12.3407 25.1195 12.3407 25.6266 12.8523C27.1169 14.3372 28.6028 15.8265 30.0844 17.3202C30.169 17.4142 30.2733 17.4883 30.39 17.5371C30.5066 17.5859 30.6327 17.6083 30.759 17.6025C31.8833 17.6025 33.0077 17.6025 34.1806 17.6025C33.8366 17.1615 33.506 16.7954 33.2326 16.3896C32.5928 15.422 32.2568 14.2852 32.2678 13.1252C32.2788 11.9651 32.6363 10.8349 33.2943 9.87959C33.9542 8.91572 34.887 8.17109 35.973 7.74126C37.059 7.31142 38.2486 7.21599 39.3892 7.46721C40.5297 7.71843 41.5692 8.30484 42.3743 9.15119C43.1794 9.99754 43.7132 11.0652 43.9074 12.2172C43.9074 12.3275 43.8501 12.4333 43.8765 12.5436V13.9153C43.7318 14.7356 43.4611 15.5286 43.074 16.2661C42.6977 16.8363 42.2681 17.3694 41.7909 17.8583C42.0775 18.0524 42.4127 18.2509 42.7081 18.4846C43.3628 19.0624 43.8143 19.8356 43.9956 20.6899V31.9678C43.9956 32.0075 43.9427 32.0428 43.9383 32.0825C43.8212 32.8962 43.4301 33.6456 42.8296 34.207C42.2292 34.7683 41.4553 35.108 40.6357 35.1699C40.3623 35.1699 40.3183 35.3243 40.3227 35.558C40.3227 36.9297 40.3227 38.3058 40.3227 39.6775C40.3227 40.8772 40.3227 42.0813 40.3227 43.281C40.3227 43.3769 40.3037 43.4719 40.2669 43.5605C40.23 43.6491 40.176 43.7295 40.108 43.7971C40.04 43.8647 39.9593 43.9183 39.8705 43.9546C39.7817 43.9909 39.6866 44.0093 39.5907 44.0087C39.3966 44.0087 39.2104 43.9316 39.0732 43.7943C38.9359 43.6569 38.8588 43.4707 38.8588 43.2765C38.8588 40.6302 38.8588 37.9985 38.8588 35.3816C38.8528 35.333 38.8362 35.2864 38.8103 35.2449H33.7352V35.7785C33.7352 38.1514 33.7352 40.5287 33.7352 42.9016C33.7634 43.1124 33.7335 43.3269 33.6488 43.522C33.5641 43.7171 33.4278 43.8854 33.2546 44.0087H27.6725C27.4863 43.9168 27.334 43.7683 27.2374 43.5845C27.1407 43.4007 27.1048 43.191 27.1346 42.9854C27.1346 39.8672 27.1346 36.7445 27.1346 33.6262C27.1346 32.4133 27.0111 31.1827 27.8797 30.0977H26.2307C25.3115 30.0977 24.43 30.463 23.7801 31.1131C23.1301 31.7632 22.765 32.645 22.765 33.5644V42.54H24.9696C25.0655 42.54 25.1605 42.5589 25.2491 42.5958C25.3376 42.6326 25.418 42.6866 25.4856 42.7547C25.5532 42.8227 25.6067 42.9035 25.643 42.9923C25.6793 43.0811 25.6977 43.1762 25.6971 43.2721C25.6971 43.4651 25.6205 43.6502 25.4841 43.7867C25.3476 43.9232 25.1626 43.9999 24.9696 43.9999H19.0392C18.9433 44.0005 18.8482 43.9821 18.7594 43.9458C18.6706 43.9094 18.5899 43.8559 18.5219 43.7883C18.4538 43.7207 18.3999 43.6402 18.363 43.5516C18.3262 43.4631 18.3072 43.3681 18.3072 43.2721C18.3072 43.1762 18.3262 43.0812 18.363 42.9926C18.3999 42.904 18.4538 42.8236 18.5219 42.756C18.5899 42.6883 18.6706 42.6348 18.7594 42.5985C18.8482 42.5622 18.9433 42.5438 19.0392 42.5444H21.2438V33.5733C21.2444 33.1178 21.1551 32.6668 20.9812 32.2459C20.8072 31.825 20.552 31.4426 20.23 31.1206C19.9081 30.7986 19.5258 30.5433 19.1051 30.3692C18.6843 30.1952 18.2334 30.106 17.7781 30.1065H16.1687C16.6382 30.7979 16.883 31.6173 16.8698 32.453C16.8698 35.9814 16.8698 39.5099 16.8698 43.0384C16.8946 43.2374 16.856 43.4393 16.7594 43.6151C16.6628 43.7909 16.5132 43.9318 16.3319 44.0175H10.7498C10.5761 43.8944 10.4392 43.7263 10.3538 43.5313C10.2683 43.3363 10.2375 43.1216 10.2647 42.9105C10.2647 40.5199 10.2647 38.1338 10.2647 35.7433V35.2316H5.18969C5.17216 35.277 5.16031 35.3245 5.15441 35.3728C5.15441 38.0191 5.15441 40.6508 5.15441 43.2677C5.15441 43.3639 5.13548 43.4591 5.0987 43.5479C5.06191 43.6367 5.008 43.7174 4.94003 43.7854C4.87207 43.8534 4.79138 43.9073 4.70257 43.9441C4.61377 43.9809 4.51859 43.9999 4.42247 43.9999H4.43129ZM32.2625 42.5135V35.1567C32.2625 33.807 32.3375 33.7364 33.6647 33.7364C35.7944 33.7364 37.924 33.7364 40.0581 33.7364C40.7138 33.7353 41.3423 33.4742 41.8059 33.0104C42.2696 32.5467 42.5305 31.918 42.5317 31.2621V21.5588C42.5317 19.971 41.6498 19.0889 40.0581 19.0889C36.8349 19.0889 33.6162 19.0889 30.393 19.0889C30.1933 19.091 29.9952 19.053 29.8105 18.9773C29.6257 18.9015 29.4579 18.7895 29.3172 18.6478C27.9944 17.285 26.6143 15.9353 25.2606 14.5813L25.0843 14.4004C25.0472 14.3641 24.9973 14.3437 24.9454 14.3437C24.8934 14.3437 24.8436 14.3641 24.8065 14.4004L23.1971 16.0059C23.1607 16.043 23.1404 16.0929 23.1404 16.1448C23.1404 16.1968 23.1607 16.2467 23.1971 16.2838C25.0402 18.1274 26.8788 19.9754 28.7307 21.8058C28.8808 21.9256 29.0678 21.9895 29.2598 21.9866C31.1646 21.9866 33.0694 21.9866 34.9919 21.9866C35.7723 21.9866 35.9928 22.2998 35.9355 23.204C35.8186 25.0472 35.8186 26.896 35.9355 28.7393C36.0016 29.7449 35.7988 30.0624 34.9478 30.0624C33.6603 30.0624 32.3728 30.0624 31.0809 30.0624C29.5112 30.0624 28.6337 30.9445 28.6293 32.5015V42.0901C28.6293 42.2312 28.6293 42.368 28.6514 42.5312L32.2625 42.5135ZM7.33699 23.1863V28.5849H16.8389V25.6739H11.323C10.5161 25.6739 10.2736 25.4313 10.2692 24.6242C10.2692 23.5656 10.2692 22.5071 10.2692 21.4486C10.2692 19.9578 9.36084 19.0757 7.87933 19.0712H3.96832C2.35012 19.0712 1.47268 19.9534 1.47268 21.5588V31.1386C1.47268 32.9028 2.31926 33.7364 4.08737 33.7364H10.6572C11.539 33.7364 11.7418 33.9393 11.7418 34.8303V42.5003H15.3839V42.1254C15.3839 38.8909 15.3839 35.6683 15.3839 32.4574C15.3839 30.971 14.502 30.0757 13.0117 30.0712H6.92693C6.11563 30.0712 5.86871 29.8287 5.86871 29.0259V23.1863C5.86871 23.0693 5.91517 22.9572 5.99786 22.8744C6.08054 22.7917 6.1927 22.7453 6.30964 22.7453H6.92252C7.03482 22.752 7.14029 22.8015 7.21734 22.8834C7.29439 22.9654 7.3372 23.0738 7.33699 23.1863ZM10.2647 13.1787C10.2647 12.0089 9.8002 10.8871 8.9733 10.06C8.1464 9.23281 7.02489 8.76812 5.85548 8.76812C4.68608 8.76812 3.56456 9.23281 2.73767 10.06C1.91077 10.8871 1.44622 12.0089 1.44622 13.1787C1.44622 14.3485 1.91077 15.4703 2.73767 16.2975C3.56456 17.1246 4.68608 17.5893 5.85548 17.5893C7.02311 17.5835 8.14125 17.1169 8.9669 16.2911C9.79254 15.4652 10.2589 14.3467 10.2647 13.1787ZM38.0431 8.76812C37.1671 8.78737 36.3168 9.06722 35.6005 9.57198C34.8842 10.0767 34.3345 10.7835 34.0215 11.6021C33.7086 12.4207 33.6465 13.314 33.8432 14.1681C34.04 15.0221 34.4866 15.7982 35.1262 16.3972C35.7658 16.9962 36.5693 17.3911 37.4341 17.5314C38.299 17.6716 39.186 17.551 39.9821 17.1848C40.7781 16.8187 41.447 16.2236 41.9035 15.4755C42.36 14.7274 42.5833 13.8602 42.5449 12.9846C42.4855 11.8358 41.9797 10.7556 41.1354 9.97446C40.2911 9.19334 39.1751 8.77311 38.0254 8.80341L38.0431 8.76812Z" fill="white"/>
<path d="M29.7362 0C30.0848 0.152894 30.421 0.332806 30.7415 0.538091C31.011 0.755092 31.2239 1.03412 31.3621 1.35133C31.5003 1.66854 31.5597 2.0145 31.5352 2.35966C31.5352 4.17682 31.5352 5.99399 31.5352 7.81556C31.5352 9.36808 30.6534 10.259 29.0792 10.2634C26.7335 10.2634 24.3878 10.2634 22.0244 10.2634C21.8773 10.2554 21.7301 10.2801 21.5937 10.3357C21.4572 10.3914 21.3347 10.4767 21.2352 10.5854C19.811 12.0321 18.3692 13.4655 16.9317 14.9034L16.7157 15.1151C16.6113 15.2368 16.4709 15.3222 16.3147 15.3586C16.1586 15.3951 15.9949 15.3808 15.8474 15.3179C15.6999 15.2549 15.5763 15.1466 15.4946 15.0086C15.4129 14.8706 15.3773 14.7101 15.3929 14.5505V10.2899C15.0931 10.2899 14.8109 10.2678 14.5111 10.2458C13.9673 10.2267 13.4516 9.99968 13.0701 9.61156C12.6887 9.22344 12.4706 8.70376 12.4608 8.15958C12.4211 6.13953 12.4255 4.11949 12.4608 2.09944C12.4741 1.63711 12.6374 1.19167 12.9262 0.830428C13.2149 0.469182 13.6134 0.211753 14.0613 0.0970329C14.1407 0.0705694 14.2156 0.0352847 14.295 0H29.7362ZM16.8656 12.3496C16.8653 12.3932 16.878 12.4358 16.9019 12.4722C16.9258 12.5086 16.96 12.537 17.0001 12.554C17.0402 12.571 17.0844 12.5757 17.1271 12.5676C17.1699 12.5595 17.2093 12.5389 17.2404 12.5084C18.3251 11.4234 19.4186 10.3516 20.4856 9.25341C20.6337 9.09063 20.8162 8.963 21.0199 8.87982C21.2236 8.79665 21.4432 8.76003 21.6629 8.77265C24.1232 8.77265 26.588 8.77265 29.0484 8.77265C29.9302 8.77265 30.1154 8.46832 30.0581 7.41419C29.976 5.94514 29.976 4.47266 30.0581 3.00361C30.1287 1.73336 29.992 1.42903 28.9867 1.42903H15.0269C14.8767 1.40131 14.7219 1.41051 14.576 1.45584C14.4301 1.50117 14.2973 1.58127 14.1892 1.68925C14.0275 1.88041 13.9385 2.12252 13.9379 2.3729C13.9379 4.24004 13.9379 6.10719 13.9379 7.97434C13.9298 8.07928 13.9447 8.18471 13.9814 8.28336C14.018 8.38201 14.0757 8.47153 14.1503 8.54574C14.2249 8.61995 14.3147 8.67709 14.4135 8.71322C14.5124 8.74935 14.6178 8.76361 14.7227 8.75501C14.9828 8.75501 15.2386 8.75501 15.4987 8.75501C16.7598 8.75501 16.8612 8.85645 16.8612 10.1267L16.8656 12.3496Z" fill="white"/>
<path d="M27.8712 5.89258H16.1293C15.7397 5.89258 15.4238 6.20853 15.4238 6.59827C15.4238 6.98802 15.7397 7.30397 16.1293 7.30397H27.8712C28.2608 7.30397 28.5766 6.98802 28.5766 6.59827C28.5766 6.20853 28.2608 5.89258 27.8712 5.89258Z" fill="white"/>
<path d="M27.8887 2.9502H22.0024C21.6127 2.9502 21.2969 3.26516 21.2969 3.65368C21.2969 4.04221 21.6127 4.35717 22.0024 4.35717H27.8887C28.2783 4.35717 28.5942 4.04221 28.5942 3.65368C28.5942 3.26516 28.2783 2.9502 27.8887 2.9502Z" fill="white"/>
<path d="M19.0703 2.9502H16.1381C15.7485 2.9502 15.4326 3.26615 15.4326 3.65589C15.4326 4.04563 15.7485 4.36158 16.1381 4.36158H19.0703C19.4599 4.36158 19.7757 4.04563 19.7757 3.65589C19.7757 3.26615 19.4599 2.9502 19.0703 2.9502Z" fill="white"/>
<path d="M38.1353 19.0622C36.9763 19.0622 35.8434 18.7184 34.8797 18.0743C33.9161 17.4302 33.165 16.5148 32.7215 15.4437C32.2779 14.3726 32.1619 13.194 32.388 12.057C32.6141 10.9199 33.1722 9.87548 33.9917 9.05571C34.8112 8.23594 35.8554 7.67767 36.9921 7.4515C38.1288 7.22533 39.307 7.34141 40.3778 7.78506C41.4485 8.22872 42.3637 8.98002 43.0076 9.94397C43.6515 10.9079 43.9952 12.0412 43.9952 13.2005C43.994 14.7548 43.3763 16.245 42.2776 17.3441C41.1789 18.4431 39.6891 19.061 38.1353 19.0622ZM38.1353 7.44472C37.0016 7.44472 35.8934 7.781 34.9508 8.41104C34.0081 9.04107 33.2734 9.93656 32.8396 10.9843C32.4057 12.032 32.2922 13.1848 32.5134 14.2971C32.7346 15.4093 33.2805 16.431 34.0821 17.2329C34.8838 18.0347 35.9051 18.5808 37.017 18.8021C38.1289 19.0233 39.2815 18.9098 40.3289 18.4758C41.3762 18.0418 42.2715 17.3069 42.9013 16.364C43.5312 15.4211 43.8673 14.3125 43.8673 13.1785C43.8615 11.6596 43.2558 10.2046 42.182 9.13052C41.1083 8.05649 39.6537 7.45053 38.1353 7.44472Z" fill="white"/>
</g>
<defs>
<clipPath id="clip0_727_1210">
<rect width="44" height="44" fill="white"/>
</clipPath>
</defs>
</svg>
