<?xml version="1.0" encoding="utf-8"?>
<!-- Generator: Adobe Illustrator 23.0.5, SVG Export Plug-In . SVG Version: 6.00 Build 0)  -->
<svg version="1.1" id="Layer_1" xmlns="http://www.w3.org/2000/svg" xmlns:xlink="http://www.w3.org/1999/xlink" x="0px" y="0px"
	 width="25px" height="25px" viewBox="0 0 25 25" style="enable-background:new 0 0 25 25;" xml:space="preserve">
<style type="text/css">
	.st0{fill:#0FB995;}
</style>
<text transform="matrix(1 0 0 1 1296 2160)" style="font-family:'MyriadPro-Regular'; font-size:12px;">https://www.flaticon.com/free-icon/linkedin_174857</text>
<path class="st0" d="M7.8,20.7H4.4v-11h3.4V20.7z M8.2,6.1c0-1.1-0.9-2-2-2c-1.1,0-2,0.9-2,2c0,1.1,0.9,2,2,2
	C7.3,8.1,8.2,7.2,8.2,6.1z M20.6,14.6c0-3-0.6-5.2-4.1-5.2c-1.7,0-2.8,0.8-3.2,1.7h0V9.6H10v11h3.3v-5.5c0-1.4,0.4-2.8,2.1-2.8
	c1.8,0,1.8,1.6,1.8,2.9v5.4h3.4V14.6z M25,22.1V2.9C25,1.3,23.7,0,22.1,0H2.9C1.3,0,0,1.3,0,2.9v19.1C0,23.7,1.3,25,2.9,25h19.1
	C23.7,25,25,23.7,25,22.1z M22.1,2c0.5,0,1,0.4,1,1v19.1c0,0.5-0.4,1-1,1H2.9c-0.5,0-1-0.4-1-1V2.9c0-0.5,0.4-1,1-1H22.1z"/>
</svg>
