<svg width="41" height="44" viewBox="0 0 41 44" fill="none" xmlns="http://www.w3.org/2000/svg">
<g clip-path="url(#clip0_727_1204)">
<path d="M25.162 2.65685e-05H6.59833C5.73276 -0.00228917 4.87519 0.146799 4.07476 0.438747C3.27433 0.730695 2.54678 1.15976 1.9338 1.70136C1.32083 2.24296 0.834489 2.88643 0.502649 3.59491C0.170809 4.30339 -3.94416e-06 5.06294 0 5.83003V38.17C-3.94416e-06 38.9371 0.170809 39.6967 0.502649 40.4051C0.834489 41.1136 1.32083 41.7571 1.9338 42.2987C2.54678 42.8403 3.27433 43.2694 4.07476 43.5613C4.87519 43.8533 5.73276 44.0023 6.59833 44H34.4017C35.2672 44.0023 36.1248 43.8533 36.9252 43.5613C37.7257 43.2694 38.4532 42.8403 39.0662 42.2987C39.6792 41.7571 40.1655 41.1136 40.4973 40.4051C40.8292 39.6967 41 38.9371 41 38.17V14.036C41.0016 13.3968 40.8602 12.7636 40.5841 12.173C40.308 11.5824 39.9026 11.0462 39.3914 10.5952L29.0446 1.42563C28.0143 0.513785 26.6181 0.00113143 25.162 2.65685e-05ZM28.1906 3.88523L36.6309 11.3652H32.2022C31.1391 11.3652 30.1195 10.9913 29.3673 10.3255C28.6152 9.65971 28.1919 8.75656 28.1906 7.81443V3.88523ZM34.4017 41.7252H6.59833C5.53478 41.7241 4.51517 41.3491 3.76313 40.6826C3.01109 40.0162 2.58802 39.1126 2.5867 38.17V5.83003C2.58802 4.88749 3.01109 3.98388 3.76313 3.31741C4.51517 2.65093 5.53478 2.27599 6.59833 2.27483H25.6238V7.80123C25.6238 9.34825 26.3165 10.832 27.5499 11.9268C28.7834 13.0215 30.4566 13.6377 32.2022 13.64H38.4332V38.17C38.4325 38.6382 38.3276 39.1017 38.1246 39.5339C37.9215 39.9662 37.6242 40.3586 37.2497 40.6889C36.8752 41.0191 36.4309 41.2807 35.9422 41.4585C35.4535 41.6363 34.93 41.727 34.4017 41.7252Z" fill="white"/>
<path d="M15.6944 15.0344C16.6763 15.0344 17.6362 14.7763 18.4527 14.2928C19.2692 13.8094 19.9055 13.1222 20.2813 12.3182C20.6571 11.5142 20.7554 10.6295 20.5639 9.77598C20.3723 8.92246 19.8994 8.13846 19.2051 7.52311C18.5107 6.90776 17.6261 6.4887 16.663 6.31892C15.6999 6.14915 14.7016 6.23628 13.7944 6.56931C12.8872 6.90233 12.1118 7.46629 11.5662 8.18987C11.0207 8.91344 10.7295 9.76414 10.7295 10.6344C10.7295 11.8013 11.2526 12.9205 12.1837 13.7456C13.1148 14.5708 14.3776 15.0344 15.6944 15.0344ZM15.6944 8.50478C16.1699 8.50391 16.6349 8.62806 17.0308 8.86154C17.4266 9.09501 17.7354 9.42731 17.918 9.81636C18.1006 10.2054 18.1489 10.6337 18.0568 11.0471C17.9646 11.4605 17.7361 11.8404 17.4003 12.1387C17.0644 12.4369 16.6362 12.6402 16.17 12.7227C15.7037 12.8053 15.2203 12.7633 14.7809 12.6023C14.3415 12.4412 13.9659 12.1683 13.7017 11.818C13.4374 11.4677 13.2963 11.0558 13.2963 10.6344C13.2963 10.0703 13.5488 9.52933 13.9984 9.13008C14.448 8.73082 15.0579 8.50594 15.6944 8.50478Z" fill="white"/>
<path d="M8.97145 23.7906C9.31163 23.7895 9.63743 23.6689 9.87752 23.4553C10.1176 23.2417 10.2524 22.9525 10.2524 22.651C10.2537 21.3467 10.8389 20.0962 11.8796 19.1739C12.9203 18.2516 14.3314 17.733 15.8031 17.7318C17.2139 17.7318 18.5672 18.2273 19.5666 19.1097C20.566 19.9921 21.1302 21.1896 21.1354 22.4398V22.6334C21.1354 22.9357 21.2709 23.2255 21.512 23.4393C21.7532 23.653 22.0803 23.773 22.4213 23.773C22.7624 23.773 23.0894 23.653 23.3306 23.4393C23.5717 23.2255 23.7072 22.9357 23.7072 22.6334V22.4398C23.702 20.5855 22.8667 18.8088 21.3849 17.4996C19.903 16.1905 17.8955 15.4559 15.8031 15.457C13.6502 15.457 11.5855 16.215 10.0631 17.5641C8.54079 18.9132 7.68555 20.7431 7.68555 22.651C7.68555 22.9533 7.82103 23.2431 8.06218 23.4569C8.30333 23.6706 8.63041 23.7906 8.97145 23.7906Z" fill="white"/>
<path d="M8.66328 32.2124H25.1219C25.2654 32.2365 25.4131 32.2322 25.5546 32.1999C25.696 32.1676 25.8277 32.1081 25.9402 32.0255C26.0527 31.9429 26.1433 31.8394 26.2054 31.7222C26.2676 31.6051 26.2998 31.4772 26.2998 31.3478C26.2998 31.2183 26.2676 31.0905 26.2054 30.9733C26.1433 30.8562 26.0527 30.7526 25.9402 30.67C25.8277 30.5875 25.696 30.5279 25.5546 30.4956C25.4131 30.4633 25.2654 30.4591 25.1219 30.4832H8.66328C8.51977 30.4591 8.37202 30.4633 8.23056 30.4956C8.08911 30.5279 7.95744 30.5875 7.84494 30.67C7.73245 30.7526 7.64189 30.8562 7.57974 30.9733C7.51758 31.0905 7.48535 31.2183 7.48535 31.3478C7.48535 31.4772 7.51758 31.6051 7.57974 31.7222C7.64189 31.8394 7.73245 31.9429 7.84494 32.0255C7.95744 32.1081 8.08911 32.1676 8.23056 32.1999C8.37202 32.2322 8.51977 32.2365 8.66328 32.2124Z" fill="white"/>
<path d="M32.1224 35.3103H8.66328C8.51977 35.2862 8.37201 35.2905 8.23056 35.3228C8.08911 35.3551 7.95744 35.4146 7.84494 35.4972C7.73245 35.5798 7.64189 35.6833 7.57974 35.8005C7.51758 35.9176 7.48535 36.0455 7.48535 36.1749C7.48535 36.3044 7.51758 36.4322 7.57974 36.5494C7.64189 36.6665 7.73245 36.7701 7.84494 36.8527C7.95744 36.9352 8.08911 36.9948 8.23056 37.0271C8.37201 37.0594 8.51977 37.0636 8.66328 37.0395H32.1224C32.2659 37.0636 32.4136 37.0594 32.5551 37.0271C32.6965 36.9948 32.8282 36.9352 32.9407 36.8527C33.0532 36.7701 33.1437 36.6665 33.2059 36.5494C33.2681 36.4322 33.3003 36.3044 33.3003 36.1749C33.3003 36.0455 33.2681 35.9176 33.2059 35.8005C33.1437 35.6833 33.0532 35.5798 32.9407 35.4972C32.8282 35.4146 32.6965 35.3551 32.5551 35.3228C32.4136 35.2905 32.2659 35.2862 32.1224 35.3103Z" fill="white"/>
</g>
<defs>
<clipPath id="clip0_727_1204">
<rect width="41" height="44" fill="white"/>
</clipPath>
</defs>
</svg>
