<?xml version="1.0" encoding="utf-8"?>
<!-- Generator: Adobe Illustrator 23.0.5, SVG Export Plug-In . SVG Version: 6.00 Build 0)  -->
<svg version="1.1" id="Layer_1" xmlns="http://www.w3.org/2000/svg" xmlns:xlink="http://www.w3.org/1999/xlink" x="0px" y="0px"
	 width="25px" height="25px" viewBox="0 0 25 25" style="enable-background:new 0 0 25 25;" xml:space="preserve">
<style type="text/css">
	.st0{fill-rule:evenodd;clip-rule:evenodd;fill:#0FB995;}
</style>
<path class="st0" d="M21.3,3.6C19,1.3,15.9,0,12.6,0C5.7,0,0.2,5.6,0.2,12.4c0,2.2,0.6,4.3,1.7,6.2L0.1,25l6.6-1.7
	c1.8,1,3.8,1.5,5.9,1.5h0c6.8,0,12.4-5.6,12.4-12.4C24.9,9.1,23.7,6,21.3,3.6z M12.6,22.7L12.6,22.7c-1.9,0-3.7-0.5-5.2-1.4L6.9,21
	l-3.9,1l1-3.8l-0.2-0.4c-1-1.6-1.6-3.5-1.6-5.5c0-5.7,4.6-10.3,10.3-10.3c2.8,0,5.3,1.1,7.3,3s3,4.5,3,7.3
	C22.8,18.1,18.2,22.7,12.6,22.7z M18.2,15c-0.3-0.2-1.8-0.9-2.1-1c-0.3-0.1-0.5-0.2-0.7,0.2c-0.2,0.3-0.8,1-1,1.2
	c-0.2,0.2-0.4,0.2-0.7,0.1c-0.3-0.2-1.3-0.5-2.5-1.5c-0.9-0.8-1.5-1.8-1.7-2.1c-0.2-0.3,0-0.5,0.1-0.6c0.3-0.4,0.7-0.9,0.8-1.1
	c0.1-0.2,0.1-0.4,0-0.5c-0.1-0.2-0.7-1.7-1-2.3C9.2,6.6,8.9,6.7,8.8,6.7c-0.2,0-0.4,0-0.6,0C8,6.7,7.6,6.7,7.3,7.1
	C7.1,7.4,6.3,8.1,6.3,9.6s1.1,3,1.3,3.2s2.2,3.3,5.3,4.7c0.7,0.3,1.3,0.5,1.8,0.7c0.7,0.2,1.4,0.2,1.9,0.1c0.6-0.1,1.8-0.7,2.1-1.5
	c0.3-0.7,0.3-1.3,0.2-1.5C18.7,15.2,18.5,15.1,18.2,15z"/>
<text transform="matrix(1 0 0 1 1296 2160)" style="font-family:'MyriadPro-Regular'; font-size:12px;">https://www.flaticon.com/free-icon/linkedin_174857</text>
</svg>
