<svg width="31" height="25" viewBox="0 0 31 25" fill="none" xmlns="http://www.w3.org/2000/svg">
<path d="M15.5 0.5C15.5 0.5 5.96196 0.499953 3.58296 1.12695C2.26993 1.47195 1.23815 2.48832 0.887402 3.77832C0.249952 6.11832 0.25 12.5 0.25 12.5C0.25 12.5 0.249952 18.8817 0.887402 21.2217C1.23815 22.5132 2.27146 23.528 3.58296 23.873C5.96196 24.5 15.5 24.5 15.5 24.5C15.5 24.5 25.038 24.5 27.417 23.873C28.7285 23.528 29.7618 22.5117 30.1126 21.2217C30.75 18.8817 30.75 12.5 30.75 12.5C30.75 12.5 30.75 6.11832 30.1126 3.77832C29.7618 2.48832 28.7285 1.47195 27.417 1.12695C25.038 0.499953 15.5 0.5 15.5 0.5ZM15.5 3.5C19.8951 3.5 25.3986 3.70041 26.6277 4.02441C26.8855 4.09191 27.0967 4.29969 27.1668 4.55469C27.5344 5.90169 27.7 10.013 27.7 12.5C27.7 14.987 27.5344 19.0968 27.1668 20.4453C27.0982 20.6988 26.887 20.9066 26.6277 20.9756C25.4001 21.2996 19.8951 21.5 15.5 21.5C11.1065 21.5 5.60294 21.2996 4.37227 20.9756C4.11454 20.9081 3.9033 20.7003 3.83315 20.4453C3.46563 19.0983 3.3 14.987 3.3 12.5C3.3 10.013 3.46563 5.90176 3.83315 4.55176C3.90178 4.29976 4.11302 4.09191 4.37227 4.02441C5.59989 3.70041 11.1049 3.5 15.5 3.5ZM12.45 7.30273V17.6973L21.6 12.5L12.45 7.30273Z" fill="#0FB995"/>
</svg>
