<svg id="Layer_1" data-name="Layer 1" xmlns="http://www.w3.org/2000/svg" width="1000" height="1000" viewBox="0 0 1000 1000">
  <defs>
    <style>
      .cls-1 {
        fill: #103ac5;
      }

      .cls-2 {
        fill: #0fb995;
      }
    </style>
  </defs>
  <title>academically logo_icon</title>
  <g>
    <path class="cls-1" d="M655.5,0h-311a93.6,93.6,0,0,0-93.6,93.5V250.9H93.5A93.6,93.6,0,0,0,0,344.5v311a93.6,93.6,0,0,0,93.5,93.6h26.6c3.6,0,80.3-1.4,130.8-120.8a434.3,434.3,0,0,0,19.5-57.9c12.3,54.1-12.2,100.3-12.2,100.3s18.9-16.1,27.3-62.4,11.8-109,53.2-155,126.8-79,185.8-158.1c11-14.9,18.8-32.2,29.2-44.3,9-10.5,20-17,36.6-14.1,9.5,1.7,16.1,6.8,19.9,14.1,10.6,19.9,1.5,55.9-19.9,83.7-29.3,38-65.6,76.5-70.7,112.4,15.5-27.6,31.8-40.1,63.1-69.8s56.9-55.1,72.3-110.3c1.4-4.9,3-10.3,4.7-16,17.8-58.2,53.8-150.9,89.4-141.3V93.5A93.6,93.6,0,0,0,655.5,0ZM588.4,109c-13.1,15.9-16.3,69.1-17.8,89.8-1,14.7-3.6,23.6-5.4,28.1a1,1,0,0,1-1.9-.3c-1.7-21.2-9.9-58.1-4.4-92.6,4-25.2,18.6-29.4,27.4-29.5A2.7,2.7,0,0,1,588.4,109Zm12.9,119a1,1,0,0,1-1.8-.7c3-34.2-5.6-72.2,4.6-118.4,10.7-52.1,43.2-52.2,58.4-49.2a2.7,2.7,0,0,1,.9,5c-18.4,12.1-35.2,61.5-44.2,107.1C612,208.7,604.8,223,601.3,228ZM717.8,78.2c-23.7,14.5-46.3,69.1-57.3,105-8.9,28.8-19.8,49.3-25,58.1a1,1,0,0,1-1.8-.6c5.4-31.5,6.4-102.3,27.3-141.7,16.7-31.1,43.5-29,56.1-25.9A2.8,2.8,0,0,1,717.8,78.2Z" transform="translate(0 0)"/>
    <path class="cls-2" d="M1000,344.5v311a93.6,93.6,0,0,1-93.5,93.6H749.1V906.5a93.6,93.6,0,0,1-93.6,93.5h-311a93.6,93.6,0,0,1-93.6-93.5V894.2s.6-61.3,42.9-110.4c10.5-12.1,21.3-23.5,33-34.7,35.7-34.3,79.5-66.6,145.3-110.7,87.5-58.5,162.5-96.9,216-214,27.5-58.4,35-118.4,42.5-173.5,4.7-33.6,9.3-65.4,18.5-93.9v93.9H906.5A93.6,93.6,0,0,1,1000,344.5Z" transform="translate(0 0)"/>
  </g>
</svg>
